<svg width="100" height="100" viewBox="0 0 100 100" fill="none" xmlns="http://www.w3.org/2000/svg">
<path d="M50 8.33334C41.7591 8.33334 33.7033 10.7771 26.8513 15.3554C19.9992 19.9338 14.6587 26.4413 11.505 34.0549C8.35138 41.6685 7.52624 50.0462 9.13396 58.1288C10.7417 66.2113 14.71 73.6356 20.5372 79.4628C26.3644 85.29 33.7887 89.2583 41.8713 90.8661C49.9538 92.4738 58.3316 91.6486 65.9452 88.495C73.5587 85.3413 80.0662 80.0008 84.6446 73.1488C89.223 66.2967 91.6667 58.2409 91.6667 50C91.6667 44.5283 90.5889 39.1101 88.495 34.0549C86.401 28.9996 83.3319 24.4063 79.4628 20.5372C75.5937 16.6681 71.0004 13.599 65.9452 11.505C60.8899 9.41108 55.4718 8.33334 50 8.33334ZM41.6667 68.75V31.25L66.6667 50L41.6667 68.75Z" fill="#394A51"/>
</svg>
