<svg width="100" height="100" viewBox="0 0 100 100" fill="none" xmlns="http://www.w3.org/2000/svg">
<path fill-rule="evenodd" clip-rule="evenodd" d="M50 8.33334C27 8.33334 8.33337 27 8.33337 50C8.33337 73 27 91.6667 50 91.6667C73 91.6667 91.6667 73 91.6667 50C91.6667 27 73 8.33334 50 8.33334ZM75 50C75 63.7917 63.7917 75 50 75C36.2084 75 25 63.7917 25 50H33.3334C33.3334 59.2083 40.7917 66.6667 50 66.6667C59.2084 66.6667 66.6667 59.2083 66.6667 50C66.6667 40.7917 59.2084 33.3333 50 33.3333V45.8333L33.3334 29.1667L50 12.5V25C63.7917 25 75 36.2083 75 50Z" fill="#394A51"/>
</svg>
